<svg width="792" height="314" viewBox="0 0 792 314" fill="none" xmlns="http://www.w3.org/2000/svg">
<path d="M37.59 66.55C40.25 66.55 45.43 69.42 53.13 75.16C60.97 80.76 64.89 84.96 64.89 87.76C64.89 92.66 66.5 100.71 69.72 111.91C72.94 123.11 76.65 133.26 80.85 142.36C85.05 137.46 92.12 128.43 102.06 115.27C112.14 101.97 120.61 91.47 127.47 83.77C134.33 76.07 139.44 72.22 142.8 72.22C146.16 72.22 149.66 74.11 153.3 77.89C156.94 81.67 158.76 85.45 158.76 89.23C158.76 93.01 158.2 97.91 157.08 103.93C155.96 109.81 154.7 115.34 153.3 120.52C152.04 125.56 150.15 132.49 147.63 141.31C145.25 150.13 143.36 157.13 141.96 162.31C140.7 167.35 139.37 172.81 137.97 178.69C136.57 184.43 135.45 188.98 134.61 192.34C133.91 195.56 133.07 198.99 132.09 202.63C131.25 206.13 130.48 208.86 129.78 210.82C129.08 212.64 128.31 214.32 127.47 215.86C125.93 218.8 123.76 220.27 120.96 220.27C118.16 220.27 115.36 217.54 112.56 212.08C109.9 206.48 108.57 200.67 108.57 194.65C108.57 179.81 112.84 160.14 121.38 135.64C119 138.72 115.57 143.27 111.09 149.29C106.61 155.17 103.25 159.51 101.01 162.31C98.91 164.97 96.25 168.12 93.03 171.76C87.29 178.06 81.69 181.21 76.23 181.21C68.95 181.21 63.77 178.34 60.69 172.6C59.15 169.66 57.05 163.08 54.39 152.86C51.87 142.5 50.05 135.36 48.93 131.44C47.11 145.86 44.66 158.95 41.58 170.71C38.5 182.47 36.47 190.17 35.49 193.81C34.51 197.45 33.18 201.86 31.5 207.04C28.7 215.86 26.18 220.27 23.94 220.27C21.42 220.27 17.92 216.98 13.44 210.4C9.1 203.68 6.93 198.43 6.93 194.65C6.93 190.87 10.99 171.97 19.11 137.95C27.37 103.93 31.5 82.44 31.5 73.48C31.5 68.86 33.53 66.55 37.59 66.55ZM222.15 138.16C224.67 138.16 229.08 132.14 235.38 120.1C241.82 108.06 248.33 96.09 254.91 84.19C261.49 72.15 266.39 66.13 269.61 66.13C274.37 66.13 278.29 68.3 281.37 72.64C284.59 76.98 286.2 82.16 286.2 88.18C286.2 92.38 282.56 100.5 275.28 112.54C268 124.44 258.76 139.21 247.56 156.85C236.36 174.49 227.75 189.47 221.73 201.79C219.91 205.71 216.97 209.77 212.91 213.97C208.85 218.17 204.93 220.27 201.15 220.27C195.55 220.27 192.75 215.79 192.75 206.83C192.75 201.51 198.07 189.12 208.71 169.66C210.39 166.58 211.58 164.27 212.28 162.73C206.12 160.35 200.52 156.43 195.48 150.97C190.44 145.51 186.45 139.35 183.51 132.49C177.35 118.07 174.27 104.07 174.27 90.49C174.27 82.09 175.18 75.93 177 72.01C178.96 68.09 182.88 66.13 188.76 66.13C191.84 66.13 194.15 68.3 195.69 72.64C197.23 76.84 198.63 82.93 199.89 90.91C201.15 98.89 202.9 105.96 205.14 112.12C207.52 118.14 210.39 124.02 213.75 129.76C217.25 135.36 220.05 138.16 222.15 138.16Z" fill="white"/>
<path d="M349.99 312.151C347.59 312.151 344.11 310.291 339.55 306.571C335.11 302.731 332.89 298.951 332.89 295.231C332.89 286.471 334.15 271.351 336.67 249.871C339.19 228.391 340.45 207.751 340.45 187.951C340.45 182.911 342.01 180.391 345.13 180.391C349.45 180.391 354.61 182.791 360.61 187.591C366.73 192.391 369.79 197.191 369.79 201.991C369.79 203.671 367.81 213.931 363.85 232.771C359.89 251.491 357.61 266.551 357.01 277.951C362.77 266.311 369.55 256.591 377.35 248.791C385.27 240.991 391.75 237.091 396.79 237.091C400.39 237.091 402.73 245.071 403.81 261.031C404.29 267.031 405.25 272.551 406.69 277.591C408.13 282.511 410.11 284.971 412.63 284.971C417.31 284.971 421.45 279.991 425.05 270.031C428.77 259.951 430.63 249.571 430.63 238.891C430.63 215.731 424.27 204.151 411.55 204.151C407.83 204.151 404.35 202.231 401.11 198.391C397.99 194.551 396.43 191.131 396.43 188.131C396.43 182.731 399.73 180.031 406.33 180.031C415.21 180.031 422.95 181.711 429.55 185.071C436.27 188.311 441.49 192.811 445.21 198.571C452.65 209.971 456.37 224.011 456.37 240.691C456.37 251.971 454.39 263.131 450.43 274.171C446.47 285.091 440.95 294.151 433.87 301.351C426.91 308.551 419.47 312.151 411.55 312.151C396.91 312.151 388.57 299.731 386.53 274.891L380.95 282.811C367.75 302.371 357.43 312.151 349.99 312.151ZM521.558 281.191C528.518 274.951 534.578 267.151 539.738 257.791C544.898 248.311 547.478 239.251 547.478 230.611C547.478 221.971 546.398 215.311 544.238 210.631C542.078 205.951 539.078 203.611 535.238 203.611C531.398 203.611 526.358 207.091 520.118 214.051C513.998 220.891 508.418 229.891 503.378 241.051C498.458 252.211 495.998 262.891 495.998 273.091C495.998 278.251 496.718 282.451 498.158 285.691C499.598 288.811 501.398 290.371 503.558 290.371C508.598 290.371 514.598 287.311 521.558 281.191ZM503.738 312.151C494.858 312.151 486.938 307.831 479.978 299.191C473.018 290.431 469.538 281.731 469.538 273.091C469.538 262.051 471.638 250.771 475.838 239.251C480.038 227.611 485.258 217.591 491.498 209.191C497.858 200.671 504.818 193.711 512.378 188.311C519.938 182.791 526.898 180.031 533.258 180.031C544.898 180.031 554.438 185.011 561.878 194.971C569.318 204.811 573.038 215.911 573.038 228.271C573.038 240.631 569.918 253.171 563.678 265.891C557.438 278.491 548.798 289.351 537.758 298.471C526.838 307.591 515.498 312.151 503.738 312.151ZM677.284 305.671C677.284 310.591 673.864 313.051 667.024 313.051C657.664 313.051 647.824 308.191 637.504 298.471C627.304 288.751 620.044 278.611 615.724 268.051C613.804 273.811 612.484 277.711 611.764 279.751C611.044 281.791 609.964 285.031 608.524 289.471C607.084 293.911 605.944 297.211 605.104 299.371C604.384 301.531 603.544 303.811 602.584 306.211C600.784 310.771 599.044 313.051 597.364 313.051C594.604 313.051 591.244 310.771 587.284 306.211C583.444 301.531 581.524 297.751 581.524 294.871C581.524 291.991 582.904 286.651 585.664 278.851C593.824 254.971 598.504 233.191 599.704 213.511C597.424 211.711 595.384 209.191 593.584 205.951C591.784 202.711 590.884 200.011 590.884 197.851C590.884 194.251 595.504 190.471 604.744 186.511C614.104 182.551 624.844 180.571 636.964 180.571C649.204 180.571 659.404 183.451 667.564 189.211C675.724 194.971 679.804 202.471 679.804 211.711C679.804 218.551 677.764 225.151 673.684 231.511C669.724 237.751 665.344 242.671 660.544 246.271C655.864 249.751 651.484 252.931 647.404 255.811C643.444 258.691 641.464 260.551 641.464 261.391C641.464 264.271 642.424 267.031 644.344 269.671C646.264 272.191 648.964 275.191 652.444 278.671C655.924 282.031 658.924 284.911 661.444 287.311C663.964 289.591 666.004 291.511 667.564 293.071C669.244 294.631 670.864 296.251 672.424 297.931C675.664 301.051 677.284 303.631 677.284 305.671ZM652.084 213.511C652.084 208.471 647.164 205.951 637.324 205.951C632.644 205.951 627.064 207.271 620.584 209.911C623.584 214.471 625.084 218.671 625.084 222.511C625.084 229.471 624.124 237.151 622.204 245.551C623.524 244.591 625.984 242.911 629.584 240.511C633.184 237.991 635.944 236.011 637.864 234.571C639.904 233.011 642.184 231.031 644.704 228.631C649.624 223.951 652.084 218.911 652.084 213.511ZM704.749 312.151H704.389C701.749 312.151 698.449 309.751 694.489 304.951C690.529 300.031 688.549 295.771 688.549 292.171C688.549 288.451 692.029 272.011 698.989 242.851C706.069 213.691 709.609 195.271 709.609 187.591C709.609 182.791 711.349 180.391 714.829 180.391C717.709 180.391 721.189 183.271 725.269 189.031C729.349 194.671 731.389 200.071 731.389 205.231C731.389 208.351 729.829 216.331 726.709 229.171C736.549 216.091 745.789 205.171 754.429 196.411C763.069 187.531 768.949 183.091 772.069 183.091C775.309 183.091 778.549 184.471 781.789 187.231C785.029 189.871 786.649 192.211 786.649 194.251C786.649 196.171 783.589 200.011 777.469 205.771C771.349 211.531 763.789 218.851 754.789 227.731C745.789 236.611 738.829 244.891 733.909 252.571C733.909 261.811 739.249 271.111 749.929 280.471C753.169 283.231 757.489 286.111 762.889 289.111C768.289 291.991 772.489 294.511 775.489 296.671C778.609 298.711 780.169 300.811 780.169 302.971C780.169 309.091 775.849 312.151 767.209 312.151C758.569 312.151 749.269 308.671 739.309 301.711C729.349 294.631 721.909 285.271 716.989 273.631C713.869 282.511 711.949 288.991 711.229 293.071C710.509 297.031 709.969 299.671 709.609 300.991C709.369 302.311 709.129 303.391 708.889 304.231C708.649 304.951 708.409 305.791 708.169 306.751C707.929 307.711 707.689 308.491 707.449 309.091C707.209 309.571 706.969 310.051 706.729 310.531C706.009 311.611 705.349 312.151 704.749 312.151Z" fill="white"/>
</svg>
